# xmcd
#
# Track frame offsets: 
#        150
#        12290
#        28520
#        38970
#        55570
#        74300
#        84440
#        95995
#        109245
#        124260
#        141700
#        155975
#
# Disc length: 2412 seconds
#
# Revision: 0
# Processed by: cddbd v1.5.2PL0 Copyright (c) Steve Scherf et al.
# Submitted via: ExactAudioCopyFreeDBPlugin 1.0
#
DISCID=ad096a0c
DTITLE=Coro Gaztelupe - Choeur Basque
DYEAR=2000
DGENRE=Country
TTITLE0=Ara non dira
TTITLE1=Ume eder bat
TTITLE2=Sagarraren
TTITLE3=Boga boga
TTITLE4=Kanta berri
TTITLE5=Goizero izarra
TTITLE6=Otoya
TTITLE7=Adios Granada
TTITLE8=Where you there
TTITLE9=Yorsi
TTITLE10=Camino de San Petersburgo
TTITLE11=Prés du fleuve étranger
EXTD=
EXTT0=
EXTT1=
EXTT2=
EXTT3=
EXTT4=
EXTT5=
EXTT6=
EXTT7=
EXTT8=
EXTT9=
EXTT10=
EXTT11=
PLAYORDER=
